<svg xmlns="http://www.w3.org/2000/svg" viewBox="0 0 140 40"><title>Evening-Standard-Press-LogoArtboard 1</title><path d="M17,24.58H14.53l-2.31-6.92c-.25-.72-.54-1.06-.89-1.18v-.17h5.21v.17c-.9.15-1.25.49-1,1.28l1.58,5,1.3-4.54a3.78,3.78,0,0,0,.19-1c0-.55-.39-.68-.87-.75v-.17h2.65v.17c-.47.17-.8.39-1.27,1.73Zm104.3-.84a3.46,3.46,0,0,1-2.51,1c-1,0-1.59-.46-1.71-1.16a2.49,2.49,0,0,1-2.18,1.15,2.09,2.09,0,0,1-2.26-2.1c0-1.47,1-2,2.68-2.42,1.33-.34,1.81-.79,1.81-1.77V18.4a1.74,1.74,0,0,0-1.9-1.67,2.72,2.72,0,0,0-.78.11,1.43,1.43,0,1,1-.13,2.85,1.39,1.39,0,0,1-1.42-1.38c0-1.34,1.88-2.16,4-2.16s3.28.77,3.28,2.21c0,0,0,1.9,0,4.79,0,.33.16.61.53.61a1.27,1.27,0,0,0,.56-.16Zm-27.15,0a3.46,3.46,0,0,1-2.51,1c-1,0-1.6-.46-1.71-1.16a2.52,2.52,0,0,1-2.18,1.15,2.1,2.1,0,0,1-2.27-2.1c0-1.47,1-2,2.68-2.42,1.33-.34,1.82-.79,1.82-1.77V18.4a1.74,1.74,0,0,0-1.9-1.67,2.67,2.67,0,0,0-.78.11,1.43,1.43,0,1,1-.14,2.85,1.38,1.38,0,0,1-1.41-1.38c0-1.34,1.88-2.16,4-2.16S93,16.92,93,18.36c0,0,0,1.9,0,4.79a.54.54,0,0,0,.54.61A1.27,1.27,0,0,0,94,23.6Zm-67-1.84a3.83,3.83,0,0,1-3.94,2.86,3.76,3.76,0,0,1-4-3.94c0-2.66,1.66-4.67,4.39-4.67a3.26,3.26,0,0,1,3.5,3.54V20H22.45c0,2.13,1.06,3,2.24,3a2.63,2.63,0,0,0,2.25-1.16Zm46.46-2.59a3.48,3.48,0,0,1-1.73-2.81c0-2.11,1.93-3.63,4.72-3.63a9.72,9.72,0,0,1,3.13.55l-.08,2.73h-.34c-.84-1.79-1.43-2.76-2.69-2.76A1.57,1.57,0,0,0,74.91,15,2.21,2.21,0,0,0,76,16.73L77.82,18C79.18,19,80,19.71,80,21.05c0,2.34-2.33,3.71-4.71,3.71A8.24,8.24,0,0,1,71.75,24l-.14-3.08H72c1,2.14,1.91,3.35,3.31,3.35a1.54,1.54,0,0,0,1.66-1.63c0-.82-.65-1.4-1.5-2ZM52.8,21.36a.68.68,0,0,0-.27.53c0,.26.15.5.77.5l3.26,0c2.14,0,2.78,1.18,2.78,2.14,0,2.54-3,3.55-5.15,3.55-2.72,0-3.69-.79-3.69-1.72,0-.57.58-1.15,1.78-1.15.17,0,.32,0,.5,0l0,.05a1.2,1.2,0,0,0-.47.92c0,.68.67,1.37,2.43,1.37s2.85-.69,2.85-1.47-.47-.91-1.69-1l-2.46-.12C51.67,25,51,24.15,51,23.18a2.24,2.24,0,0,1,1.63-1.91ZM51,18.92c0-1.71,1.7-2.77,3.83-2.77a5.89,5.89,0,0,1,1.86.3,5,5,0,0,0,.66,0A5.85,5.85,0,0,0,59.65,16v1.4h-.1a13,13,0,0,1-2.41-.72,2.58,2.58,0,0,1,1.43,2.24c0,1.74-1.7,2.82-3.79,2.82S51,20.82,51,18.92m39,4.43V19.53c-.17.86-1.45,1-1.45,2.54v.06a1.19,1.19,0,0,0,1.17,1.26,1.57,1.57,0,0,0,.28,0m38.38-5.66a1.64,1.64,0,0,1-3.28,0,1.64,1.64,0,0,1,3.28,0m-3.56,1v4.45c0,.79.24,1.11,1,1.27v.18H121V24.4c.3-.06.69-.27.69-1V17.48a.88.88,0,0,0-.73-1v-.17h3.84a23.58,23.58,0,0,0-.07,2.37m-7.67,4.67V19.53c-.16.86-1.45,1-1.45,2.54v.06a1.19,1.19,0,0,0,1.17,1.26,1.57,1.57,0,0,0,.28,0m20.45,1.23V24.4c-.72-.11-.8-.45-.8-1V13h-4v.21c.82.1.92.13.92.57v3a2.57,2.57,0,0,0-1.87-.63c-1.83,0-3.72,1.38-3.72,4.45,0,2.84,1.28,4.17,3.12,4.17a2.68,2.68,0,0,0,2.47-1.4v1.21Zm-3.84-2.06a1,1,0,0,1-1,1c-.85,0-1.28-.58-1.28-1.53V17.92a1.17,1.17,0,0,1,1.23-1.26,1.09,1.09,0,0,1,1.1,1.13Zm-21.07,2.06V24.4c-.71-.11-.8-.45-.8-1V13h-4v.21c.82.1.92.13.92.57v3a2.56,2.56,0,0,0-1.86-.63c-1.83,0-3.73,1.38-3.73,4.45,0,2.84,1.28,4.17,3.13,4.17a2.65,2.65,0,0,0,2.46-1.4v1.21ZM3.86,14.63c0-.68-.26-1.24-1.36-1.32V13h9.42v3H11.6c-1-1.68-1.4-2.48-2.49-2.48H7.32V18.6h.74c1.19,0,1.56-.5,2.16-1.91h.27V21h-.27c-.6-1.4-1-1.9-2.16-1.9H7.32v4.16c0,.58.22.89,1.12.89h.5c1.73,0,2.23-1.12,3.34-3h.3l-.33,3.43H2.5v-.27c1.1-.08,1.36-.65,1.36-1.33Zm104.89,7.89a1,1,0,0,1-1,1c-.85,0-1.28-.58-1.28-1.53V17.92a1.17,1.17,0,0,1,1.23-1.26,1.09,1.09,0,0,1,1.1,1.13Zm-9.23-3.66a.91.91,0,0,0-1-1,2,2,0,0,0-1,.29v5.32c0,.64.23.84.8.93v.18H93.84V24.4c.32-.06.68-.27.68-1V17.48c0-.7-.2-.9-.73-1v-.17h3.86l-.1,1.63a3.16,3.16,0,0,1,2.75-1.79,2.08,2.08,0,0,1,2.26,2.38v4.89c0,.53.08.87.63,1v.18H98.87V24.4c.4-.09.65-.37.65-1ZM85.39,23.13a2.89,2.89,0,0,1-2.75,1.55,1.79,1.79,0,0,1-2-1.95V16.82h-.75v-.19a7.45,7.45,0,0,0,3.61-2h.19v1.7h1.66v.51H83.68v5.66c0,.55.26.87.79.87a1,1,0,0,0,.77-.32ZM55.53,18.81c0-1.57-.19-2.26-.74-2.26s-.81.69-.81,2.26v.25c0,1.57.23,2.26.81,2.26s.74-.69.74-2.26Zm-8.47.05a.91.91,0,0,0-1-1,2,2,0,0,0-1,.29v5.32c0,.64.23.84.8.93v.18H41.43V24.4c.3-.06.64-.27.64-1V17.48c0-.7-.2-.9-.74-1v-.17h3.86l-.1,1.63a3.18,3.18,0,0,1,2.75-1.79,2.08,2.08,0,0,1,2.26,2.38v4.89c0,.53.08.87.63,1v.18H46.41V24.4c.4-.09.65-.37.65-1ZM40.6,14.2A1.64,1.64,0,1,1,39,12.65,1.61,1.61,0,0,1,40.6,14.2m-3.13,3.28c0-.53-.16-.9-.7-1v-.17h3.75v7.11c0,.52.2.92.75,1v.18H36.72V24.4c.55-.06.75-.46.75-1Zm-4.59,1.38a.9.9,0,0,0-1-1,2,2,0,0,0-.95.29v5.32c0,.64.25.84.8.93v.18H27.16V24.4a.88.88,0,0,0,.73-1V17.48c0-.7-.2-.9-.73-1v-.17H31l-.1,1.63a3.15,3.15,0,0,1,2.74-1.79,2.09,2.09,0,0,1,2.27,2.38v4.89c0,.53.08.87.63,1v.18H32.23V24.4c.4-.09.65-.37.65-1Zm-8.58.64V17.86c0-.91-.29-1.28-.75-1.28-.64,0-1,.76-1.1,2.92Z" fill="#00237e"/><path d="M67.8,20.71a.08.08,0,0,0,0-.08.1.1,0,0,0-.08-.05h0s0,0,0,.06.07.08.13.07m-5.32-2.5-.23-.05L62,18.11a.2.2,0,0,0-.11,0l.22.12s0,0,0,0h0a1.77,1.77,0,0,0,.32,0l0,0m2.38-.85v0l0,.05s0,0,.08,0a.7.7,0,0,1,.2-.08,1,1,0,0,1,.56,0h0s0,0,0,0l0,0-.15,0h-.22a1.44,1.44,0,0,0-.46.08s-.06,0-.07.05m3.31,1.16,0-.13a0,0,0,0,0,0-.05.1.1,0,0,0-.18,0,.21.21,0,0,0,0,.15.08.08,0,0,0,0,0,.41.41,0,0,0,.2.19.2.2,0,0,0,.08,0l.16.1a.41.41,0,0,1,.1.21s0,0,0,.05a.17.17,0,0,0,0-.17.62.62,0,0,0-.11-.17.28.28,0,0,0-.14-.12.47.47,0,0,1-.14-.14m-1,4.56-.06,0a.28.28,0,0,1-.15.08.64.64,0,0,1-.2,0h-.4a.25.25,0,0,0-.17.08.09.09,0,0,0,0,.15.1.1,0,0,0,.19,0v0a.35.35,0,0,1,.17-.06h.15a.58.58,0,0,0,.26,0l.08-.05a.32.32,0,0,0,.12-.11s0,0,0,0m-1.51-3.7a.18.18,0,0,0,0,.11,1.52,1.52,0,0,1,.06.2.66.66,0,0,0,.05.15c.08.12.16.24.23.37a1.11,1.11,0,0,1,.14.29.33.33,0,0,0,0,.26s0,0,0,0a.38.38,0,0,1,.08-.17.11.11,0,0,0,0-.13,3.24,3.24,0,0,0-.17-.32l-.19-.29a1.08,1.08,0,0,1-.12-.24.33.33,0,0,0-.13-.19m3.14-2.57v0h0l-.35,0H68a3.69,3.69,0,0,0-.58.09c-.13,0-.26.05-.39.09a3.86,3.86,0,0,0-.58.17l-.5.18-.06,0,0,0a.31.31,0,0,0,.13.1l.08,0,.16-.09.4-.16.34-.11.39-.1a5.59,5.59,0,0,1,.56-.12,5.49,5.49,0,0,1,.81,0h.07m-1.07,3.72s.07,0,.12,0a.12.12,0,0,0,.1,0,.2.2,0,0,0,.1-.28l0-.05a.15.15,0,0,1,0-.17l.09-.13a1.92,1.92,0,0,1,.22-.18.66.66,0,0,0,.23-.32.38.38,0,0,0,0-.15,0,0,0,0,0,0,0h0s0,.06,0,.08,0,.08-.05.11a.57.57,0,0,1-.15.16l-.23.17a.89.89,0,0,0-.29.32.45.45,0,0,0-.07.3.41.41,0,0,0,0,.11m-5.2-4.89a4.84,4.84,0,0,1-1.47-2.05l0,0a.1.1,0,0,0-.05.1.57.57,0,0,0,0,.18,2.16,2.16,0,0,0,.17.34,3.94,3.94,0,0,0,.35.55l.3.35a3.57,3.57,0,0,0,.52.44l.1.07a.07.07,0,0,0,.08,0M62.43,26s0,0,0,0,0-.1,0-.15a.7.7,0,0,1,.05-.25c0-.13.09-.25.14-.37s.1-.25.15-.38l.09-.27c.05-.13.09-.26.14-.4A.6.6,0,0,0,63.1,24l0-.07a.32.32,0,0,0,0-.09.7.7,0,0,1,0-.14s0,0,0-.06a.2.2,0,0,0,0-.15,0,0,0,0,0-.05,0s0,.08,0,.12,0,0-.06,0a.47.47,0,0,1-.16-.31.59.59,0,0,0,0-.13,0,0,0,1,0-.07,0v.16l0,.17v.38c0,.08,0,.15,0,.23a1.5,1.5,0,0,1,0,.2,4,4,0,0,1-.13.58c0,.11-.06.22-.09.34a2.47,2.47,0,0,1-.11.36,1.61,1.61,0,0,0-.07.37.17.17,0,0,0,0,.07.09.09,0,0,0,0,.05m-1.14-9.68a.19.19,0,0,0,0,.18.32.32,0,0,0,.13.15l.05,0a.61.61,0,0,0,0,.14c0,.12.06.14.18.14h.25a.4.4,0,0,0,.15,0l.43-.21,0,0-.08,0-.22-.08-.36-.17a2.27,2.27,0,0,1-.34-.19,1,1,0,0,1-.2-.15,1.31,1.31,0,0,1-.24-.28.05.05,0,0,0,0,0s0,0,0,0a.39.39,0,0,0,0,.15.36.36,0,0,0,.08.19,2.54,2.54,0,0,1,.2.24m1.58,0s0,0,0-.06L62.45,16c-.2-.14-.41-.27-.6-.43s-.25-.19-.35-.3-.16-.17-.23-.26A2.42,2.42,0,0,1,61,14.5a1,1,0,0,1,0-.5v0c0-.07,0-.12,0-.18a.13.13,0,0,0,0-.06.26.26,0,0,0-.08.13.8.8,0,0,0,0,.53,2.61,2.61,0,0,0,.24.54L61,15c-.05.08-.05.09,0,.17a.32.32,0,0,0,.1.18,1.7,1.7,0,0,0,.19.19,2.41,2.41,0,0,0,.24.21l.53.32a4,4,0,0,0,.57.24l.23.06m1.24.74s0,0,0,0a.07.07,0,0,0,0-.05c0-.14,0-.28,0-.43s0-.23-.06-.35S64,16,63.94,15.9l-.18-.39a3.18,3.18,0,0,0-.16-.32l-.24-.41-.09-.14,0,0v.05a.15.15,0,0,1,0,.07c0,.09.06.19.1.28a1.87,1.87,0,0,1,.08.32c0,.11,0,.21,0,.32a1.12,1.12,0,0,1-.07.45c0,.08-.07.15-.1.22a.55.55,0,0,1-.19.24v0h.08a1,1,0,0,1,.38.14A4.17,4.17,0,0,1,64,17l.07.06,0,0m-.89,3.41-.15.14-.26.19c-.09.07-.06.07-.18,0l-.06,0-.11-.1s-.05,0-.06-.07a1.24,1.24,0,0,1-.19-.36v0l-.08,0,0,0-.14.25a2.3,2.3,0,0,0-.23.37l-.15.3a.06.06,0,0,0,0,.07l.07,0a.2.2,0,0,1,.11,0,1.88,1.88,0,0,1,.33.05.55.55,0,0,0,.45,0l.24-.1a1,1,0,0,1,.24,0l.37,0h.06l.2-.08c.07,0,.12-.08.19-.1h0a1.31,1.31,0,0,0,.3-.36,0,0,0,0,0,0-.07h0l-.08,0-.16,0-.38,0a2.62,2.62,0,0,1-.28,0M62.1,27.13a.32.32,0,0,1-.15.06l-.29,0-.34,0h0l0,0a.11.11,0,0,0,0,.11s0,0,0,0h2.12s.05,0,.05-.05a0,0,0,0,0,0,0c0-.06,0-.08-.08-.1l-.21,0h-.06c0-.06,0-.13-.09-.18H63l-.11,0a.25.25,0,0,1-.17,0,.66.66,0,0,1-.29-.17.36.36,0,0,1-.07-.1s0,0,0-.06a.22.22,0,0,1,0-.14s0-.05,0-.07a.11.11,0,0,0-.15-.12h0c-.06,0-.1,0-.11-.08a.17.17,0,0,1,0-.07,1.19,1.19,0,0,1,.08-.2,1.82,1.82,0,0,0,.2-.55c0-.15.06-.29.08-.44a1.26,1.26,0,0,0,0-.27,1.22,1.22,0,0,1,.07-.38c0-.09,0-.19.07-.28a.13.13,0,0,0,0-.06c0-.09,0-.18,0-.27s-.08,0-.1,0l0,0c-.08.17-.17.33-.25.5a.55.55,0,0,0-.07.28c0,.1,0,.2,0,.3a.5.5,0,0,1,0,.21,1.74,1.74,0,0,1,0,.22,2.81,2.81,0,0,1-.08.31,2,2,0,0,1-.13.34.08.08,0,0,1,0,0,.36.36,0,0,0-.11.16.23.23,0,0,0,0,.28.71.71,0,0,1,.15.3A.42.42,0,0,0,62,27l.11.15m-.61-10.07a.08.08,0,0,0,0,.1.58.58,0,0,0,.22.29.47.47,0,0,0-.11.25.68.68,0,0,0,.07.28h0A.85.85,0,0,1,62,18a.38.38,0,0,0,.15,0,.82.82,0,0,1,.22,0h.19s0,0,0-.05l0-.1a.29.29,0,0,1,0-.18l0,0a1,1,0,0,1,.29-.09s0,0,0,0h-.27a.94.94,0,0,1-.3-.07l0,0a.34.34,0,0,1-.06-.12.08.08,0,0,1,0-.08.54.54,0,0,1,.2-.1l.26-.07.14,0a.1.1,0,0,1,.09,0,.63.63,0,0,1,.17.23,2.77,2.77,0,0,1,.1.26l.06.23V18h0a.46.46,0,0,0,.2,0A.65.65,0,0,1,64,18l.18.11.08,0h0v0s0,0,0,0a3.51,3.51,0,0,1-.27-.4,2.64,2.64,0,0,0-.33-.47,2.06,2.06,0,0,0-.29-.3l-.07,0a1.63,1.63,0,0,0-.37-.13.22.22,0,0,0-.14,0l.07.08-.08,0a.68.68,0,0,0-.23.05.73.73,0,0,0-.23.09h0a2.52,2.52,0,0,1-.47.13.44.44,0,0,1-.32,0m-.13,1a.6.6,0,0,0-.11.06.14.14,0,0,0-.07.1.17.17,0,0,0,0,.12l.11.22a1,1,0,0,0,.32.36s0,0,0,0a.47.47,0,0,1-.1.1.39.39,0,0,1-.36.06l-.07,0a.17.17,0,0,0-.18.05l-.08.07a.33.33,0,0,0-.09.23v.11a.24.24,0,0,1,0,.2.14.14,0,0,0,.1.1.2.2,0,0,0,.15,0,.35.35,0,0,1,.17,0h.1s0,0,0-.05a.23.23,0,0,0,0-.14s0,0-.09,0a.09.09,0,0,1-.07,0,.2.2,0,0,0-.13,0,.12.12,0,0,1-.09,0,.5.5,0,0,1,.08-.27.29.29,0,0,1,.15-.09l.21,0a.63.63,0,0,0,.24-.09l0,0a.15.15,0,0,0,0,.06.74.74,0,0,1,0,.14.3.3,0,0,0,0,.13.27.27,0,0,0,.13.18l0,0a.14.14,0,0,0,0,.06.3.3,0,0,0,0,.1.25.25,0,0,0,0,.25.66.66,0,0,0,.15.14.07.07,0,0,0,.09,0l.07,0a.79.79,0,0,1,.29-.11.13.13,0,0,0,.1-.07l.16-.24a.61.61,0,0,1,.19-.2.17.17,0,0,0,.07-.14l0-.19.06-.17a.21.21,0,0,1,.07-.12s0,0,0,0h-.06a.32.32,0,0,1-.19-.05l0,0a.31.31,0,0,0-.21-.06h-.12l0,0a.19.19,0,0,1,.13,0l.2.07a.85.85,0,0,1,.17.06.08.08,0,0,0,.1,0l.06,0s0,.07,0,.1,0,.06,0,.1,0,0,0,0a.34.34,0,0,0,0,.17,1,1,0,0,1,.07.15l.08.13a.36.36,0,0,0,.13.11.07.07,0,0,0,0,0l0-.07-.14-.23,0-.06a2.45,2.45,0,0,1,0-.27c0-.11,0-.23,0-.34a.59.59,0,0,1,0-.14v-.06l-.12-.06H63l0,0,0,0s0,0,0,0a0,0,0,0,1,0,0l-.06,0-.08,0s-.07,0,0,.06a0,0,0,0,0,0,0h0a.4.4,0,0,1,.15,0c0,.07,0,.08,0,.09h0a1.77,1.77,0,0,1-.23,0s0,0,0,0,0,0,0,0h.11a.06.06,0,0,1,.06.05,0,0,0,0,1,0,0h0l-.15,0a.34.34,0,0,1-.15-.06l-.12-.06h-.06a1.6,1.6,0,0,0-.3.13.88.88,0,0,1-.21.12.15.15,0,0,1-.13,0,.72.72,0,0,1-.24-.18.88.88,0,0,1-.18-.29.25.25,0,0,1,0-.17.1.1,0,0,0,0-.09M64.11,16h0a.49.49,0,0,0,0-.12,2.83,2.83,0,0,0-.14-.41,5.12,5.12,0,0,0-.27-.52l0,0c-.05-.08-.1-.16-.16-.24l-.22-.38-.1-.19c-.08-.12-.15-.24-.22-.37l-.13-.26a1.22,1.22,0,0,1-.1-.24s0-.08-.05-.13-.12-.29-.17-.43a1.34,1.34,0,0,1-.07-.18c0-.06-.05-.11-.07-.16a1.56,1.56,0,0,0-.16-.28A.46.46,0,0,0,62,11.9H62a.44.44,0,0,0-.19.07.51.51,0,0,0-.15.28,2,2,0,0,0,0,.42s0,0,0,.05a.42.42,0,0,0-.26-.08.21.21,0,0,0-.2.1l0,.06a.84.84,0,0,0-.07.35.66.66,0,0,0,.06.31l.12.3a3.72,3.72,0,0,0,.27.48c.09.15.19.3.29.45L62,15a3.87,3.87,0,0,0,.4.41l.2.19.37.26h0a0,0,0,0,0,0,0s0,0,0,0l-.12-.1-.15-.14-.13-.13-.32-.32-.17-.21c-.1-.12-.19-.24-.28-.37a3.39,3.39,0,0,1-.4-.78,4.58,4.58,0,0,1-.15-.49.71.71,0,0,1,0-.29.49.49,0,0,1,0-.11.08.08,0,0,1,.1-.05s.07,0,.09.07.07.3.12.45a4.47,4.47,0,0,0,.25.64,3.47,3.47,0,0,0,.38.61,6.2,6.2,0,0,0,.55.6l.11.11.2.15s0,0,0,0L63,15.19a2.76,2.76,0,0,1-.28-.39,1.82,1.82,0,0,0-.15-.23,3,3,0,0,1-.26-.46,4.27,4.27,0,0,1-.24-.53s0,0,0,0a.56.56,0,0,1-.07-.18c0-.08-.05-.16-.08-.23a2.14,2.14,0,0,1-.08-.32,2.83,2.83,0,0,1,0-.41.33.33,0,0,1,.08-.18l0,0a.08.08,0,0,1,.09,0,.38.38,0,0,1,.11.11l.15.29c.1.19.18.4.29.59l.14.28L63,14c.08.15.17.28.26.42s.19.27.27.41.16.25.23.38a1.23,1.23,0,0,1,.14.25c.07.18.15.36.23.54M67,21.22a.76.76,0,0,1,0-.11.17.17,0,0,0-.17-.13h-.27a.54.54,0,0,1-.31-.06.24.24,0,0,0-.14,0s0,0,0,0a.7.7,0,0,0-.08-.23,3.3,3.3,0,0,0-.42-.73.53.53,0,0,0-.06-.1.67.67,0,0,1-.1-.23.88.88,0,0,1,0-.15h0l-.17.07a3.88,3.88,0,0,1-.49.11l-.06,0a.87.87,0,0,1-.45.12H64s0,0,0,0,0,0,0,0h0a1,1,0,0,0,.39,0c.08,0,.12,0,.12.1a.23.23,0,0,1,0,.14.68.68,0,0,1-.22.26.3.3,0,0,0-.08.08.1.1,0,0,0,.07.07h.07l.11,0c0,.06,0,.06,0,.09l-.07.06s0,.06,0,.08l.06,0h.13a1.17,1.17,0,0,0,.26-.1s0,0,0,0a.26.26,0,0,1-.12.15,1,1,0,0,1-.5.13c-.11,0-.12,0-.11-.11s0,0,0,0a.1.1,0,0,0-.07.16l0,0s0,0,0,.06a.33.33,0,0,0,0,.14.19.19,0,0,0,.1.12.71.71,0,0,0,.2,0,1.92,1.92,0,0,0,.32,0,.57.57,0,0,0,.29-.19A.5.5,0,0,0,65,21a1.4,1.4,0,0,0,.13-.34.23.23,0,0,0,0-.14l0-.1a.56.56,0,0,1,0-.12.23.23,0,0,1,0-.18.2.2,0,0,1,.08-.08s0,0,0,0l0,0a1,1,0,0,0,.21.34,3,3,0,0,0,.35.36.2.2,0,0,1,.06.11.2.2,0,0,0,0,.07c0,.1.07.12.19.1a.27.27,0,0,1,.13,0,.88.88,0,0,0,.23.07.49.49,0,0,1,.17.06l.08,0,.24.08a1.56,1.56,0,0,0,.43.08.16.16,0,0,0,0,.15v0a.08.08,0,0,1,0,.07l0,0a.39.39,0,0,0-.08.1.56.56,0,0,0-.07.44,2.5,2.5,0,0,0,.07.26,1.07,1.07,0,0,1,0,.47l0,0s0,0,0,0l.06-.09a.47.47,0,0,0,0-.16,1.35,1.35,0,0,0,0-.49.29.29,0,0,1,0-.09c0-.13,0-.15.09-.21l.09-.06a.11.11,0,0,0,0-.15.17.17,0,0,1,0-.05s.06-.05.08-.08a.37.37,0,0,0,0-.11l0,0c0-.05,0-.06-.06-.1h.15c.07,0,.09,0,0-.1s0,0,0-.05h0a.05.05,0,0,0,0-.09.11.11,0,0,0-.09,0l-.16,0a.08.08,0,0,1,0-.08h.09l0,0c.06,0,.06-.06,0-.1l0,0-.13-.06a.14.14,0,0,0-.18,0l0,.05-.09.13a.27.27,0,0,0-.06.17v.12c0,.05,0,.08-.08.07l-.23,0m-4.5,2.44s0,0,0,0,0,0,0-.05a.76.76,0,0,1,0-.3l0-.11a.23.23,0,0,0,0-.14,1.16,1.16,0,0,1-.08-.42,2.5,2.5,0,0,1,.1-.72.18.18,0,0,1,.1-.14.49.49,0,0,1,.17-.06c.06,0,.08,0,.1.06v0l0,.14a4.87,4.87,0,0,1,.15.76v0a1,1,0,0,1,0,.34v.18s0,0,0,.06a.06.06,0,0,0,.06,0,1.39,1.39,0,0,0,.06-.19,3.94,3.94,0,0,0,.1-.47c0-.1,0-.21,0-.32a.66.66,0,0,0,0-.14s0-.06,0-.09,0-.33,0-.5a.14.14,0,0,1,0-.11l.15-.18s0,0,0,0a.67.67,0,0,0-.12.06c-.15.1-.31.17-.46.26l0,0c-.14.06-.28.09-.41.16l-.06,0-.29.08-.39.1a.35.35,0,0,1-.14,0,1.16,1.16,0,0,1-.37,0l-.2-.08,0,0a.06.06,0,0,1,0-.09.07.07,0,0,1,.1,0l.1,0a1,1,0,0,0,.25.06.62.62,0,0,0,.42-.06.32.32,0,0,1,.14,0,2,2,0,0,0,.26-.06l.35-.1.13-.05.5-.21a3,3,0,0,0,.39-.22,0,0,0,0,0,0,0h0l-.18.09a.76.76,0,0,1-.39.08.53.53,0,0,0-.25,0l-.24.11-.1,0-.1,0a.42.42,0,0,1-.27,0,.54.54,0,0,0-.25,0,.58.58,0,0,0-.19,0,.53.53,0,0,1-.22,0,.24.24,0,0,1-.18-.09l0,0a.11.11,0,0,1,0-.11l.15-.31a.43.43,0,0,1,0-.07l.12-.17a1.81,1.81,0,0,1,.25-.3l0-.05s0,0,0,0h0l-.08.06a2.14,2.14,0,0,0-.44.46l0,0s0,0,0,0a.55.55,0,0,0-.46.11,1.34,1.34,0,0,0-.31.27,1.36,1.36,0,0,1-.12.12.29.29,0,0,1-.22.08l-.07,0,.05,0a.53.53,0,0,0,.25.05l.19,0,.13,0,.14-.06c.11-.15.11-.15.19-.18a2.48,2.48,0,0,0-.15.4l-.09.05a1.1,1.1,0,0,0-.34.26l0,0-.26.22s0,0,0,0a.32.32,0,0,0,0,.09s0,.06,0,.09v0c-.05.07,0,.09,0,.14h0c0,.11,0,.11.12.14s0,0,0,0a.1.1,0,0,0,.17,0,.1.1,0,0,0,0-.05.24.24,0,0,1,.14-.12.27.27,0,0,0,.14-.14.56.56,0,0,0,.07-.16.15.15,0,0,1,.07-.11.49.49,0,0,1,0,.11.11.11,0,0,0,.09.1l.15,0a.19.19,0,0,0,.15,0l.1-.07.39-.29a.11.11,0,0,1,.07,0L62.1,22h0s0,0,.06,0a.22.22,0,0,1,0,.08.83.83,0,0,0,0,.31,1.5,1.5,0,0,0,.14.59.31.31,0,0,1,.05.1.27.27,0,0,1,0,.12,1.58,1.58,0,0,0,0,.37.37.37,0,0,0,.05.11m3.46-5.89h-.26a1,1,0,0,1-.24,0,.37.37,0,0,1-.25-.1l-.08-.09s0,0,0,0h0a0,0,0,0,0,0,0l0,.13a.39.39,0,0,1,0,.21.06.06,0,0,1,0,0h0a.27.27,0,0,1-.14-.14,2.16,2.16,0,0,1-.22-.36.88.88,0,0,1-.12-.32s0-.06,0-.09a0,0,0,0,0,0,0h0l0,0a.41.41,0,0,0,0,.19c0,.08,0,.16,0,.23v.13s0,0,0,.05l-.05,0-.09-.08a.06.06,0,0,0-.08,0,.74.74,0,0,0,0,.21s0,0,0,.06l.1.16a.73.73,0,0,0,.05.09.2.2,0,0,1,0,.09s0,.08,0,.12a1.51,1.51,0,0,1,0,.3.87.87,0,0,1-.13.35,2.48,2.48,0,0,1-.19.26s0,0,0,0a.11.11,0,0,0,.09,0l.08-.1,0,0a.41.41,0,0,0,.11-.07.17.17,0,0,1,.12,0,.31.31,0,0,1,.17.09l.09.11a.11.11,0,0,0,.14,0,.33.33,0,0,1,.14,0,.47.47,0,0,1,.38.08l0,0s0,0,.07,0a1.18,1.18,0,0,0,.28-.31.27.27,0,0,1,.07-.08l.22,0a.66.66,0,0,0,.39-.09.28.28,0,0,0,.1-.09s0,0,0,0h.11a.57.57,0,0,0,.18,0,1.43,1.43,0,0,0,.34-.14l.06-.05a.15.15,0,0,0,0-.06.33.33,0,0,0,.17,0,.41.41,0,0,0,.36-.22H68a2.36,2.36,0,0,0,.37,0,.58.58,0,0,0,.21-.07.08.08,0,0,0,.05-.07,0,0,0,0,1,0,0h.05l.31.07a.82.82,0,0,0,.27,0c.08,0,.09,0,0-.1a.05.05,0,0,1,0,0,.27.27,0,0,1,.09,0l.29,0h.16l.24,0,.12,0a.06.06,0,0,0,0-.09l0-.06,0,0h0l.3.05a4.6,4.6,0,0,0,.83,0l.05,0a.27.27,0,0,0-.11-.17l-.14-.1-.17-.1-.39-.16h0l-.29-.08-.13,0a3,3,0,0,0-.52-.11,1.65,1.65,0,0,1-.32,0h-.5l-.2,0c-.13,0-.25,0-.38.05l-.38.07a3.2,3.2,0,0,0-.42.1c-.23.08-.46.14-.7.21l-.43.13a.66.66,0,0,1-.44,0,1,1,0,0,0-.24,0s0,0,0,0,0,0,0,0l.12,0a.64.64,0,0,1,.24.11" fill="#00237e"/><path d="M64.82,18.24s0,0,0,0,.16.26.25.38a.28.28,0,0,0,.1.09l.12.07.06,0a.05.05,0,0,0,.07,0v-.12l.1-.06v-.07l.06-.06s0-.07,0-.1,0,0,.08,0h0a1.11,1.11,0,0,0,0-.26s0,0,0,0h0a2.71,2.71,0,0,1-.41,0h-.15a.66.66,0,0,0-.27.06m1.1-.47a.64.64,0,0,0-.24-.11l-.12,0s0,0,0,0,0,0,0,0a1,1,0,0,1,.24,0,.66.66,0,0,0,.44,0l.43-.13c.24-.07.47-.13.7-.21a3.2,3.2,0,0,1,.42-.1l.38-.07c.13,0,.25,0,.38-.05l.2,0h.5a1.65,1.65,0,0,0,.32,0,3,3,0,0,1,.52.11l.13,0,.29.08h0l.39.16.17.1.14.1a.27.27,0,0,1,.11.17l-.05,0a4.6,4.6,0,0,1-.83,0l-.3-.05h0l0,0,0,.06a.06.06,0,0,1,0,.09l-.12,0-.24,0h-.16l-.29,0a.27.27,0,0,0-.09,0,.05.05,0,0,0,0,0c0,.06,0,.09,0,.1a.82.82,0,0,1-.27,0L68.68,18h-.05a0,0,0,0,0,0,0,.08.08,0,0,1-.05.07.58.58,0,0,1-.21.07,2.36,2.36,0,0,1-.37,0h-.07a.41.41,0,0,1-.36.22.33.33,0,0,1-.17,0,.15.15,0,0,1,0,.06l-.06.05a1.43,1.43,0,0,1-.34.14.57.57,0,0,1-.18,0h-.11s0,0,0,0a.28.28,0,0,1-.1.09.66.66,0,0,1-.39.09l-.22,0a.27.27,0,0,0-.07.08,1.18,1.18,0,0,1-.28.31s0,0-.07,0l0,0a.47.47,0,0,0-.38-.08.33.33,0,0,0-.14,0,.11.11,0,0,1-.14,0l-.09-.11a.31.31,0,0,0-.17-.09.17.17,0,0,0-.12,0,.41.41,0,0,1-.11.07l0,0-.08.1a.11.11,0,0,1-.09,0s0,0,0,0a2.48,2.48,0,0,0,.19-.26.87.87,0,0,0,.13-.35,1.51,1.51,0,0,0,0-.3s0-.08,0-.12a.2.2,0,0,0,0-.09.73.73,0,0,1-.05-.09l-.1-.16s0,0,0-.06a.74.74,0,0,1,0-.21.06.06,0,0,1,.08,0l.09.08.05,0s0,0,0-.05v-.13c0-.07,0-.15,0-.23a.41.41,0,0,1,0-.19l0,0h0a0,0,0,0,1,0,0s0,.06,0,.09a.88.88,0,0,0,.12.32,2.16,2.16,0,0,0,.22.36A.27.27,0,0,0,65,18h0a.06.06,0,0,0,0,0,.39.39,0,0,0,0-.21l0-.13a0,0,0,0,1,0,0h0s0,0,0,0l.08.09a.37.37,0,0,0,.25.1,1,1,0,0,0,.24,0h.26" fill="#00237e"/><path d="M62.46,23.66a.37.37,0,0,1-.05-.11,1.58,1.58,0,0,1,0-.37.27.27,0,0,0,0-.12.31.31,0,0,0-.05-.1,1.5,1.5,0,0,1-.14-.59.83.83,0,0,1,0-.31.22.22,0,0,0,0-.08s0,0-.06,0h0l-.23.05a.11.11,0,0,0-.07,0l-.39.29-.1.07a.19.19,0,0,1-.15,0l-.15,0a.11.11,0,0,1-.09-.1.49.49,0,0,0,0-.11.15.15,0,0,0-.07.11.56.56,0,0,1-.07.16.27.27,0,0,1-.14.14.24.24,0,0,0-.14.12.1.1,0,0,1,0,.05.1.1,0,0,1-.17,0s0,0,0,0-.11,0-.12-.14h0c-.07-.05-.08-.07,0-.14v0s0-.06,0-.09a.32.32,0,0,1,0-.09s0,0,0,0l.26-.22,0,0a1.1,1.1,0,0,1,.34-.26l.09-.05a2.48,2.48,0,0,1,.15-.4c-.08,0-.08,0-.19.18l-.14.06-.13,0-.19,0a.53.53,0,0,1-.25-.05l-.05,0,.07,0a.29.29,0,0,0,.22-.08,1.36,1.36,0,0,0,.12-.12,1.34,1.34,0,0,1,.31-.27.55.55,0,0,1,.46-.11s0,0,0,0l0,0a2.14,2.14,0,0,1,.44-.46l.08-.06h0s0,0,0,0l0,.05a1.81,1.81,0,0,0-.25.3l-.12.17a.43.43,0,0,0,0,.07l-.15.31a.11.11,0,0,0,0,.11l0,0a.24.24,0,0,0,.18.09.53.53,0,0,0,.22,0,.58.58,0,0,1,.19,0,.54.54,0,0,1,.25,0,.42.42,0,0,0,.27,0l.1,0a.18.18,0,0,0,.1,0l.24-.11a.53.53,0,0,1,.25,0,.76.76,0,0,0,.39-.08l.18-.09h0a0,0,0,0,1,0,0,3,3,0,0,1-.39.22l-.5.21-.13.05-.35.1a2,2,0,0,1-.26.06.23.23,0,0,0-.14,0,.68.68,0,0,1-.42.05,1,1,0,0,1-.25-.06l-.1,0a.07.07,0,0,0-.1,0,.06.06,0,0,0,0,.09l0,0,.2.08a1.16,1.16,0,0,0,.37,0,.35.35,0,0,0,.14,0l.39-.1.29-.08.06,0c.13-.07.27-.1.41-.16l0,0c.15-.09.31-.16.46-.26a.67.67,0,0,1,.12-.06s0,0,0,0l-.15.18a.14.14,0,0,0,0,.11c0,.17,0,.33,0,.5s0,.06,0,.09a.66.66,0,0,1,0,.14c0,.11,0,.22,0,.32a3.94,3.94,0,0,1-.1.47,1.39,1.39,0,0,1-.06.19.06.06,0,0,1-.06,0s0,0,0-.06V23a1,1,0,0,0,0-.34v0a4.87,4.87,0,0,0-.15-.76l0-.14v0c0-.06,0-.07-.1-.06a.49.49,0,0,0-.17.06.18.18,0,0,0-.1.14,2.5,2.5,0,0,0-.1.72,1.16,1.16,0,0,0,.08.42.23.23,0,0,1,0,.14l0,.11a.76.76,0,0,0,0,.3s0,0,0,.05,0,0,0,0" fill="#00237e"/><path d="M64.11,16c-.08-.18-.16-.36-.23-.54a1.65,1.65,0,0,0-.14-.26l-.23-.38c-.08-.13-.18-.27-.27-.4s-.18-.27-.26-.41l-.31-.53-.14-.28c-.11-.19-.19-.4-.29-.59l-.15-.29a.57.57,0,0,0-.11-.11.08.08,0,0,0-.09,0l0,0a.36.36,0,0,0-.08.18,2.83,2.83,0,0,0,0,.41,2.14,2.14,0,0,0,.08.32c0,.07,0,.15.08.23a1,1,0,0,0,.07.18s0,0,0,0a4.27,4.27,0,0,0,.24.53,4.17,4.17,0,0,0,.26.46,1.82,1.82,0,0,1,.15.23,2.76,2.76,0,0,0,.28.39l.22.27s0,0,0,0l-.2-.15-.11-.11a6.2,6.2,0,0,1-.55-.6,3.47,3.47,0,0,1-.38-.61,4.47,4.47,0,0,1-.25-.64c-.05-.15-.08-.3-.12-.45s0-.07-.09-.07a.08.08,0,0,0-.1.05.49.49,0,0,0,0,.11.71.71,0,0,0,0,.29,4,4,0,0,0,.15.49,3.39,3.39,0,0,0,.4.78c.09.13.18.25.28.37l.17.21.32.32.13.13.15.14.12.1s0,0,0,0a0,0,0,0,1,0,0h0l-.37-.26-.2-.19A3.87,3.87,0,0,1,62,15l-.26-.36-.29-.43a4.67,4.67,0,0,1-.27-.49l-.12-.3a.66.66,0,0,1-.06-.31.84.84,0,0,1,.07-.35l0-.06a.21.21,0,0,1,.2-.1.42.42,0,0,1,.26.08s0,0,0-.05a2,2,0,0,1,0-.42.51.51,0,0,1,.15-.28.44.44,0,0,1,.19-.07H62a.46.46,0,0,1,.18.13,1.56,1.56,0,0,1,.16.28s0,.1.07.16a1.34,1.34,0,0,0,.07.18c0,.14.11.29.17.43s0,.09.05.13a1.73,1.73,0,0,0,.1.24l.13.26c.07.13.14.25.22.37l.1.19.22.38.16.24,0,0a5.12,5.12,0,0,1,.27.52,2.83,2.83,0,0,1,.14.41.49.49,0,0,1,0,.12h0" fill="#00237e"/><path d="M61.36,18.1a.1.1,0,0,1,0,.09.25.25,0,0,0,0,.17.88.88,0,0,0,.18.29.72.72,0,0,0,.24.18.15.15,0,0,0,.13,0,.88.88,0,0,0,.21-.12,1.6,1.6,0,0,1,.3-.13h.06l.12.06a.34.34,0,0,0,.15.06l.15,0h0a0,0,0,0,0,0,0,.06.06,0,0,0-.06-.05h-.11s0,0,0,0,0,0,0,0a1.77,1.77,0,0,0,.23,0h0s.06,0,0-.09a.4.4,0,0,0-.15,0h0a0,0,0,0,1,0,0s0-.07,0-.06l.08,0,.06,0a0,0,0,0,0,0,0s0,0,0,0,0,0,0,0l0,0h.1l.12.06v.06s0,.09,0,.14,0,.23,0,.34a2.45,2.45,0,0,0,0,.27l0,.06.14.23,0,.07a.07.07,0,0,1,0,0,.36.36,0,0,1-.13-.11l-.08-.13a1,1,0,0,0-.07-.15.34.34,0,0,1,0-.17s0,0,0,0,0-.07,0-.1,0-.06,0-.1,0,0-.05,0a.08.08,0,0,1-.1,0,.85.85,0,0,0-.17-.06l-.2-.07a.19.19,0,0,0-.13,0l0,0h.12a.32.32,0,0,1,.21.06l0,0a.32.32,0,0,0,.19.05H63s0,0,0,0a.25.25,0,0,0-.07.12l-.06.17,0,.19a.17.17,0,0,1-.07.14.61.61,0,0,0-.19.2l-.16.24a.13.13,0,0,1-.1.07.79.79,0,0,0-.29.11l-.07,0a.07.07,0,0,1-.09,0,.47.47,0,0,1-.14-.14.23.23,0,0,1,0-.25.3.3,0,0,1,0-.1l0-.06,0,0a.29.29,0,0,1-.13-.18.3.3,0,0,1,0-.13.74.74,0,0,0,0-.14.15.15,0,0,1,0-.06l0,0a.63.63,0,0,1-.24.09l-.21,0a.29.29,0,0,0-.15.09.5.5,0,0,0-.08.27.12.12,0,0,0,.09,0,.2.2,0,0,1,.13,0,.09.09,0,0,0,.07,0s.08,0,.09,0a.23.23,0,0,1,0,.14s0,.05,0,.05h-.1a.35.35,0,0,0-.17,0,.2.2,0,0,1-.15,0,.14.14,0,0,1-.1-.1.24.24,0,0,0,0-.2v-.11a.33.33,0,0,1,.09-.23l.08-.07a.17.17,0,0,1,.18-.05l.07,0a.39.39,0,0,0,.36-.06.47.47,0,0,0,.1-.1s0,0,0,0a1,1,0,0,1-.32-.36l-.11-.22a.17.17,0,0,1,0-.12.14.14,0,0,1,.07-.1.6.6,0,0,1,.11-.06" fill="#00237e"/><path d="M61.49,17.06a.44.44,0,0,0,.32,0,2.52,2.52,0,0,0,.47-.13h0a1.15,1.15,0,0,1,.23-.1,1,1,0,0,1,.23,0l.08,0-.07-.09a.31.31,0,0,1,.14,0,1.63,1.63,0,0,1,.37.13l.07,0a2.06,2.06,0,0,1,.29.3,2.64,2.64,0,0,1,.33.47,3.51,3.51,0,0,0,.27.4s0,0,0,0,0,0,0,0,0,0,0,0l-.08,0L64,18a.65.65,0,0,0-.51,0,.46.46,0,0,1-.2,0h0v-.24l-.06-.23a2.77,2.77,0,0,0-.1-.26A.63.63,0,0,0,62.9,17a.1.1,0,0,0-.09,0l-.14,0-.26.07a.54.54,0,0,0-.2.1.08.08,0,0,0,0,.08.34.34,0,0,0,.06.12l0,0a.94.94,0,0,0,.3.07h.27s0,0,0,0a1,1,0,0,0-.29.09l0,0a.29.29,0,0,0,0,.18l0,.1s0,.05,0,.05h-.19l-.22,0A.38.38,0,0,1,62,18a.81.81,0,0,0-.31,0h0a.68.68,0,0,1-.07-.27.47.47,0,0,1,.11-.26.63.63,0,0,1-.22-.29.08.08,0,0,1,0-.1" fill="#00237e"/><path d="M62.1,27.13,62,27a.42.42,0,0,1-.09-.19.71.71,0,0,0-.15-.3.23.23,0,0,1,0-.28.36.36,0,0,1,.11-.16.08.08,0,0,0,0,0,2,2,0,0,0,.13-.34l.09-.31c0-.07,0-.15,0-.22a.5.5,0,0,0,0-.21c0-.1,0-.2,0-.3a.55.55,0,0,1,.07-.28c.08-.17.17-.33.25-.5l0,0c0-.06,0-.06.1,0a1.22,1.22,0,0,0,0,.27.13.13,0,0,1,0,.06c0,.09-.05.19-.07.28a1.22,1.22,0,0,0-.07.38,1.26,1.26,0,0,1,0,.27c0,.15-.06.29-.09.44a1.57,1.57,0,0,1-.19.55,1.19,1.19,0,0,0-.08.2.17.17,0,0,0,0,.07.1.1,0,0,0,.11.08h0a.11.11,0,0,1,.15.12v.07a.22.22,0,0,0,0,.14s0,0,0,.06a.36.36,0,0,0,.07.1.66.66,0,0,0,.29.17.25.25,0,0,0,.17,0L63,27h.09c.06,0,.06.12.09.18h.06l.21,0c.06,0,.07,0,.08.1a0,0,0,0,1,0,0s0,.05-.05.05H61.32s0,0-.06,0a.14.14,0,0,1,0-.11l0,0h0l.34,0,.29,0a.32.32,0,0,0,.15-.06" fill="#00237e"/><path d="M63.22,20.52a2.62,2.62,0,0,0,.28,0l.38,0,.17,0,.07,0h0a0,0,0,0,1,0,.07,1.31,1.31,0,0,1-.3.36h0c-.07,0-.12.08-.19.1l-.2.08h-.06l-.37,0a1,1,0,0,0-.24,0l-.24.1a.55.55,0,0,1-.45,0,1.88,1.88,0,0,0-.33-.05.27.27,0,0,0-.12,0l-.06,0a.06.06,0,0,1,0-.07l.15-.3a2.3,2.3,0,0,1,.23-.37l.15-.25,0,0,.08,0h0a1.24,1.24,0,0,0,.19.36s0,.05.06.07l.11.1.06,0c.12.05.09.05.18,0l.26-.19.15-.14" fill="#00237e"/><path d="M64.11,17.11l0,0L64,17c-.14-.1-.29-.21-.44-.3a1.22,1.22,0,0,0-.38-.13H63.1v0a.55.55,0,0,0,.19-.24c0-.07.07-.14.1-.22a1.12,1.12,0,0,0,.07-.45c0-.11,0-.21,0-.32a2.14,2.14,0,0,0-.08-.32c0-.09-.06-.19-.09-.28a.43.43,0,0,0,0-.07V14.6l0,0,.09.14.24.41a3.18,3.18,0,0,1,.16.32l.18.39c0,.12.09.24.12.36s0,.24.06.35,0,.29,0,.44a.06.06,0,0,1,0,0s0,0,0,0" fill="#00237e"/><path d="M62.87,16.37l-.22-.06a3.72,3.72,0,0,1-.58-.24l-.53-.32a2.41,2.41,0,0,1-.24-.21,1.7,1.7,0,0,1-.19-.19.42.42,0,0,1-.11-.18A.16.16,0,0,1,61,15l0-.07a2.61,2.61,0,0,1-.24-.54.8.8,0,0,1,0-.53.26.26,0,0,1,.08-.13.13.13,0,0,1,0,.06c0,.06.05.11,0,.18v0a1,1,0,0,0,0,.5,2.42,2.42,0,0,0,.29.55l.22.26c.11.11.24.19.36.3s.4.29.6.43l.42.27s0,0,0,.06" fill="#00237e"/><path d="M61.29,16.33a2.54,2.54,0,0,0-.2-.24A.36.36,0,0,1,61,15.9a.39.39,0,0,1,0-.15s0,0,0,0a.05.05,0,0,1,0,0,1.31,1.31,0,0,0,.24.28,1,1,0,0,0,.2.15,2.27,2.27,0,0,0,.34.19l.36.17.22.08.08,0,0,0-.43.21a.4.4,0,0,1-.15,0h-.25c-.11,0-.15,0-.18-.14a.61.61,0,0,1,0-.14l-.05,0a.32.32,0,0,1-.13-.15.19.19,0,0,1,0-.18" fill="#00237e"/><path d="M62.43,26l0-.05a.17.17,0,0,1,0-.07,1,1,0,0,1,.07-.37,2.47,2.47,0,0,0,.11-.36c0-.12.07-.23.09-.34a3.75,3.75,0,0,0,.13-.58c0-.07,0-.14,0-.2s0-.16,0-.23v-.38l0-.17V23.1a0,0,0,1,1,.07,0,.59.59,0,0,1,0,.13.47.47,0,0,0,.16.31s.05,0,.06,0,0-.09,0-.12a0,0,0,0,1,.05,0,.2.2,0,0,1,0,.15l0,.06a.7.7,0,0,0,0,.14.32.32,0,0,1,0,.09l0,.07a.6.6,0,0,1-.06.19c0,.13-.09.27-.14.4l-.09.27c-.05.13-.09.26-.15.38s-.09.24-.14.37a.7.7,0,0,0-.05.25c0,.05,0,.1,0,.15s0,0,0,0" fill="#00237e"/><path d="M62.53,15.64a.07.07,0,0,1-.08,0l-.1-.07a3.57,3.57,0,0,1-.52-.44l-.3-.35a3.94,3.94,0,0,1-.35-.55,2.16,2.16,0,0,1-.17-.34.57.57,0,0,1,0-.18.1.1,0,0,1,.05-.1l0,0a4.92,4.92,0,0,0,1.47,2.05" fill="#00237e"/><path d="M67.73,20.53a.41.41,0,0,1,0-.11.45.45,0,0,1,.07-.3.89.89,0,0,1,.29-.32l.23-.17a.57.57,0,0,0,.15-.16s0-.07.05-.11,0-.05,0-.08h0a0,0,0,0,1,0,0,.38.38,0,0,1,0,.15.66.66,0,0,1-.23.32,1.92,1.92,0,0,0-.22.18l-.09.13a.15.15,0,0,0,0,.17l0,.05a.2.2,0,0,1-.1.28.12.12,0,0,1-.1,0,.22.22,0,0,1-.12,0" fill="#00237e"/><path d="M68.8,16.81h-.07a5.49,5.49,0,0,0-.81,0,5.59,5.59,0,0,0-.56.12l-.39.1-.34.11-.4.16-.16.09-.08,0a.31.31,0,0,1-.13-.1s0,0,0,0l.06,0,.5-.18A3.86,3.86,0,0,1,67,17c.13,0,.26-.06.39-.09a3.69,3.69,0,0,1,.58-.09h.09l.33,0,.36,0h0v0" fill="#00237e"/><path d="M65.66,19.38a.33.33,0,0,1,.13.19,1.08,1.08,0,0,0,.12.24c.06.1.13.19.19.28s.12.22.17.33a.11.11,0,0,1,0,.13.27.27,0,0,0-.08.17s0,0,0,0a.33.33,0,0,1,0-.26,1.11,1.11,0,0,0-.14-.29c-.07-.13-.15-.25-.23-.37a.66.66,0,0,1-.05-.15,1.52,1.52,0,0,0-.06-.2.18.18,0,0,1,0-.11" fill="#00237e"/><path d="M67.17,23.08s0,0,0,0a.32.32,0,0,1-.12.11l-.08.05a.58.58,0,0,1-.26,0h-.15a.35.35,0,0,0-.17.06v0s0,.07-.08.08a.09.09,0,0,1-.11-.05.09.09,0,0,1,0-.15.25.25,0,0,1,.17-.08h.4a1.2,1.2,0,0,0,.2,0,.22.22,0,0,0,.15-.08l.06,0" fill="#00237e"/><path d="M68.17,18.52a.47.47,0,0,0,.14.14.28.28,0,0,1,.14.12.62.62,0,0,1,.11.17.17.17,0,0,1,0,.17s0,0,0-.05a.35.35,0,0,0-.1-.2l-.16-.11a.2.2,0,0,1-.08,0,.41.41,0,0,1-.2-.19.05.05,0,0,1,0,0,.21.21,0,0,1,0-.15.1.1,0,0,1,.18,0,0,0,0,0,1,0,.05l0,.13" fill="#00237e"/><path d="M64.85,17.36s.05,0,.08-.05a1.44,1.44,0,0,1,.46-.08h.22l.15,0,0,0s0,0,0,0h0a1,1,0,0,0-.56,0,.7.7,0,0,0-.2.08s0,0-.08,0l0-.05v0" fill="#00237e"/><path d="M62.48,18.21l0,0a1.77,1.77,0,0,1-.32,0h-.07l-.22-.13a.2.2,0,0,1,.11,0l.29.05.23.05" fill="#00237e"/><path d="M67.8,20.71a.14.14,0,0,1-.13-.07,0,0,0,0,1,0-.06h0a.14.14,0,0,1,.08.05.09.09,0,0,1,0,.08" fill="#00237e"/><path d="M64.82,18.24a.66.66,0,0,1,.27-.06h.15a2.71,2.71,0,0,0,.41,0h0s0,0,0,0a1.11,1.11,0,0,1,0,.26h0s-.06,0-.08,0,0,.06,0,.1l-.07.06v.07l-.1.06v.12a.05.05,0,0,1-.07,0l-.06,0-.12-.07a.28.28,0,0,1-.1-.09c-.09-.12-.17-.25-.25-.38s0,0,0,0" fill="#00237e"/><path d="M67,21.22l.23,0s.08,0,.08-.07v-.12a.27.27,0,0,1,.06-.17l.09-.13,0-.05a.14.14,0,0,1,.18,0l.13.06,0,0c.05,0,.05.07,0,.1l0,0h-.09a.08.08,0,0,0,0,.08l.16,0a.12.12,0,0,1,.09,0,.05.05,0,0,1,0,.09h0s0,0,0,.05,0,.09,0,.1h-.15s.07.05.06.1l0,0a.37.37,0,0,1,0,.11s-.06.05-.08.08a.17.17,0,0,0,0,.05.11.11,0,0,1,0,.15l-.09.06c-.11.06-.12.08-.09.21a.29.29,0,0,0,0,.09,1.35,1.35,0,0,1,0,.49.47.47,0,0,1,0,.16L67.3,23s0,0,0,0l0,0a1.07,1.07,0,0,0,0-.47c0-.09,0-.18-.07-.26a.56.56,0,0,1,.07-.44.39.39,0,0,1,.08-.1l0,0a.08.08,0,0,0,0-.07v0a.16.16,0,0,1,0-.15,1.42,1.42,0,0,1-.42-.08l-.25-.07-.08,0a.49.49,0,0,0-.17-.06.88.88,0,0,1-.23-.07.27.27,0,0,0-.13,0c-.12,0-.14,0-.19-.1a.2.2,0,0,1,0-.07.2.2,0,0,0-.06-.11,3,3,0,0,1-.35-.36.92.92,0,0,1-.21-.34l0,0s0,0,0,0a.2.2,0,0,0-.08.08.23.23,0,0,0,0,.18.56.56,0,0,0,0,.12l0,.1a.23.23,0,0,1,0,.14A1.4,1.4,0,0,1,65,21a.5.5,0,0,1-.08.12.57.57,0,0,1-.29.19,1.92,1.92,0,0,1-.32,0,.71.71,0,0,1-.2,0,.19.19,0,0,1-.1-.12A.33.33,0,0,1,64,21s0,0,0-.06l0,0a.1.1,0,0,1,.07-.16,0,0,0,0,1,0,0c0,.11,0,.11.11.11a1,1,0,0,0,.5-.13.26.26,0,0,0,.12-.15s0,0,0,0a.8.8,0,0,1-.26.09h-.13l-.07,0a0,0,0,0,1,0-.08l.07-.06s0,0,0-.09l-.11,0h-.07a.1.1,0,0,1-.07-.07.2.2,0,0,1,.08-.08.62.62,0,0,0,.22-.26.23.23,0,0,0,0-.14c0-.08,0-.11-.12-.1a1,1,0,0,1-.39,0h0a0,0,0,0,1,0,0,0,0,0,0,1,0,0h.06a.84.84,0,0,0,.45-.12l.06,0a3.88,3.88,0,0,0,.49-.11l.18-.07h0a.88.88,0,0,0,0,.15.67.67,0,0,0,.1.23s0,.07.07.1a3.71,3.71,0,0,1,.41.73.7.7,0,0,1,.08.23,0,0,0,0,0,0,0,.28.28,0,0,1,.13,0,.59.59,0,0,0,.32.06h.27a.17.17,0,0,1,.17.13.3.3,0,0,0,0,.11" fill="#00237e"/><path d="M64.17,21.18a.12.12,0,0,0,.1,0l.17,0a1,1,0,0,0,.28-.13s.06,0,.1-.1a.74.74,0,0,1-.22.08l-.23,0h-.22a.16.16,0,0,0,0,.14" fill="#00237e"/><polyline points="67.79 21.18 67.78 21.17 67.77 21.18 67.78 21.18 67.79 21.18" fill="#00237e"/><path d="M64.17,21.18a.16.16,0,0,1,0-.14h.22l.23,0a.74.74,0,0,0,.22-.08c0,.06,0,.08-.1.1a1,1,0,0,1-.28.13l-.17,0a.12.12,0,0,1-.1,0" fill="#00237e"/><polyline points="67.79 21.18 67.78 21.18 67.77 21.18 67.78 21.17 67.79 21.18" fill="#00237e"/></svg>