<svg xmlns="http://www.w3.org/2000/svg" viewBox="0 0 140 40"><title>Real-Homes-Logo</title><rect width="140" height="40" fill="#fff"/><path d="M64.33,17.75h5.46l.68,1.68h4.11L67.24,4.5H66.9L59.56,19.43h4.09Zm2.74-6.62,1.51,3.72h-3Z" fill="#00237e"/><polygon points="86.36 16.11 79.61 16.11 79.61 4.92 75.67 4.92 75.67 19.43 86.36 19.43 86.36 16.11" fill="#00237e"/><path d="M38.78,15.22h1.35l2.43,4.21h4.37l-3.11-5a4.78,4.78,0,0,0,2.66-4.33c0-2.95-2.41-5.16-6.22-5.16H34.84V19.43h3.94Zm0-7.28h1c2.1,0,2.63,1.23,2.63,2.12s-.51,2.13-2.63,2.13h-1Z" fill="#00237e"/><polygon points="58.44 16.11 52.12 16.11 52.12 13.98 57.41 13.98 57.41 10.95 52.12 10.95 52.12 8.23 58.24 8.23 58.24 4.92 48.18 4.92 48.18 19.43 58.44 19.43 58.44 16.11" fill="#00237e"/><polygon points="85.77 29.69 91.06 29.69 91.06 26.67 85.77 26.67 85.77 23.95 91.89 23.95 91.89 20.63 81.83 20.63 81.83 35.15 92.09 35.15 92.09 31.83 85.77 31.83 85.77 29.69" fill="#00237e"/><path d="M56.68,20.22a7.64,7.64,0,1,0,7.9,7.65A7.64,7.64,0,0,0,56.68,20.22Zm0,11.73a3.91,3.91,0,0,1-3.9-4.08,3.89,3.89,0,1,1,7.77,0A3.88,3.88,0,0,1,56.68,32Z" fill="#00237e"/><polygon points="43.74 26.52 38.76 26.52 38.76 20.63 34.82 20.63 34.82 35.15 38.76 35.15 38.76 29.84 43.74 29.84 43.74 35.15 47.68 35.15 47.68 20.63 43.74 20.63 43.74 26.52" fill="#00237e"/><path d="M100.27,26.06c-2-.66-2.54-.93-2.54-1.63s.67-1.14,1.77-1.14a4.55,4.55,0,0,1,3.34,1.49l2.17-2.1a6.84,6.84,0,0,0-5.58-2.46c-3.19,0-5.28,1.59-5.28,4.48,0,3.4,2.9,4.1,4.85,4.73,1.14.35,2.28.76,2.28,1.63s-.75,1.37-2.13,1.37a4.66,4.66,0,0,1-3.84-2.22l-2.45,2.06a7.65,7.65,0,0,0,6.41,3.23c3.4,0,5.91-1.82,5.91-4.79S102.46,26.79,100.27,26.06Z" fill="#00237e"/><polygon points="73.29 27.1 66.09 20.22 65.78 20.22 65.78 35.15 69.64 35.15 69.64 28.45 73.12 31.91 73.45 31.91 76.94 28.45 76.94 35.15 80.79 35.15 80.79 20.22 80.48 20.22 73.29 27.1" fill="#00237e"/></svg>